<svg width="200" height="160" viewBox="0 0 200 160" fill="none" xmlns="http://www.w3.org/2000/svg">
  <!-- VLN Feature: Technical Documentation -->
  <defs>
    <linearGradient id="codeGrad" x1="20" y1="16" x2="180" y2="140" gradientUnits="userSpaceOnUse">
      <stop offset="0%" stop-color="#151a1c"/>
      <stop offset="100%" stop-color="#0a0e0f"/>
    </linearGradient>
  </defs>
  <rect x="20" y="16" width="160" height="118" rx="10" fill="url(#codeGrad)" stroke="#7dd3fc" stroke-width="1.5" stroke-opacity="0.5"/>
  <rect x="20" y="16" width="160" height="22" rx="10" fill="#1f2527"/>
  <rect x="20" y="28" width="160" height="10" fill="#1f2527"/>
  <circle cx="37" cy="27" r="4" fill="#ef4444" fill-opacity="0.7"/>
  <circle cx="51" cy="27" r="4" fill="#fbbf24" fill-opacity="0.7"/>
  <circle cx="65" cy="27" r="4" fill="#86d993" fill-opacity="0.7"/>
  <rect x="36" y="50" width="28" height="6" rx="2" fill="#c084fc" fill-opacity="0.8"/>
  <rect x="70" y="50" width="52" height="6" rx="2" fill="#7dd3fc" fill-opacity="0.8"/>
  <rect x="128" y="50" width="16" height="6" rx="2" fill="#f8f9fa" fill-opacity="0.4"/>
  <rect x="48" y="63" width="20" height="6" rx="2" fill="#86d993" fill-opacity="0.8"/>
  <rect x="74" y="63" width="10" height="6" rx="2" fill="#f8f9fa" fill-opacity="0.4"/>
  <rect x="90" y="63" width="44" height="6" rx="2" fill="#fbbf24" fill-opacity="0.7"/>
  <rect x="48" y="76" width="30" height="6" rx="2" fill="#86d993" fill-opacity="0.8"/>
  <rect x="84" y="76" width="10" height="6" rx="2" fill="#f8f9fa" fill-opacity="0.4"/>
  <rect x="100" y="76" width="24" height="6" rx="2" fill="#7dd3fc" fill-opacity="0.8"/>
  <rect x="36" y="89" width="12" height="6" rx="2" fill="#f8f9fa" fill-opacity="0.4"/>
  <rect x="54" y="89" width="2" height="6" rx="1" fill="#86d993"/>
  <rect x="36" y="104" width="80" height="5" rx="2" fill="#94a3b8" fill-opacity="0.4"/>
  <text x="100" y="152" text-anchor="middle"
        font-family="Inter, system-ui, sans-serif" font-size="11" font-weight="600"
        fill="#7dd3fc" letter-spacing="1">OPEN STANDARDS</text>
</svg>
